{"title":"Kingsman The Secret Service(2014)MPEG-4[DaScubaDude]","uid":14403731,"size":1292953514,"categoryP":"video","categoryS":"movies","magnet":"?xt=urn:btih:a8ec204966e954984092490d46369c857ec09f2f&amp;dn=Kingsman+The+Secret+Service%282014%29MPEG-4%5BDaScubaDude%5D&amp;tr=udp%3A%2F%2Ftracker.leechers-paradise.org%3A6969&amp;tr=udp%3A%2F%2Fzer0day.ch%3A1337&amp;tr=udp%3A%2F%2Fopen.demonii.com%3A1337&amp;tr=udp%3A%2F%2Ftracker.coppersurfer.tk%3A6969&amp;tr=udp%3A%2F%2Fexodus.desync.com%3A6969","seeders":0,"leechers":1,"uploader":"dascuba","files":1,"time":1461394773,"description":"Kingsman: The Secret Service (2014)\r\nR | 2h 9min | Action, Adventure, Comedy | 13 February 2015 (USA)\r\nA spy organization recruits an unrefined, but promising street kid into the agency's ultra-competitive training program, just as a global threat emerges from a twisted tech genius.\r\nDirector: Matthew Vaughn\r\nWriters: Jane Goldman (screenplay), Matthew Vaughn (screenplay) |\r\nStars: Colin Firth, Taron Egerton, Samuel L. Jackson \r\n\r\nGeneral\r\nComplete name                            : KingsmanKINGSMAN_Title1.mp4\r\nFormat                                   : MPEG-4\r\nFormat profile                           : Base Media\r\nCodec ID                                 : isom\r\nFile size                                : 1.20 GiB\r\nDuration                                 : 2h 8mn\r\nOverall bit rate                         : 1 340 Kbps\r\nMovie name                               : KINGSMAN\r\nGenre                                    : Thriller\r\nWriting application                      : Lavf54.6.100\r\n\r\nVideo\r\nID                                       : 1\r\nFormat                                   : AVC\r\nFormat/Info                              : Advanced Video Codec\r\nFormat profile                           :   \r\nFormat settings, CABAC                   : No\r\nFormat settings, ReFrames                : 6 frames\r\nCodec ID                                 : avc1\r\nCodec ID/Info                            : Advanced Video Coding\r\nDuration                                 : 2h 8mn\r\nBit rate                                 : 1 205 Kbps\r\nWidth                                    : 720 pixels\r\nHeight                                   : 404 pixels\r\nDisplay aspect ratio                     : 16:9\r\nFrame rate mode                          : Constant\r\nFrame rate                               : 29.970 fps\r\nColor space                              : YUV\r\nChroma subsampling                       : 4:2:0\r\nBit depth                                : 8 bits\r\nScan type                                : Progressive\r\nBits/(Pixel*Frame)                       : 0.138\r\nStream size                              : 1.08 GiB (90%)\r\n\r\nAudio\r\nID                                       : 2\r\nFormat                                   : AAC\r\nFormat/Info                              : Advanced Audio Codec\r\nFormat profile                           : LC\r\nCodec ID                                 : 40\r\nDuration                                 : 2h 8mn\r\nBit rate mode                            : Constant\r\nBit rate                                 : 128 Kbps\r\nChannel(s)                               : 2 channels\r\nChannel positions                        : Front: L R\r\nSampling rate                            : 44.1 KHz\r\nCompression mode                         : Lossy\r\nStream size                              : 118 MiB (10%)","torrent":{"xt":"urn:btih:a8ec204966e954984092490d46369c857ec09f2f","amp;dn":"Kingsman+The+Secret+Service%282014%29MPEG-4%5BDaScubaDude%5D","amp;tr":["udp%3A%2F%2Ftracker.leechers-paradise.org%3A6969","udp%3A%2F%2Fzer0day.ch%3A1337","udp%3A%2F%2Fopen.demonii.com%3A1337","udp%3A%2F%2Ftracker.coppersurfer.tk%3A6969","udp%3A%2F%2Fexodus.desync.com%3A6969"],"infoHash":"a8ec204966e954984092490d46369c857ec09f2f","infoHashBuffer":{"type":"Buffer","data":[168,236,32,73,102,233,84,152,64,146,73,13,70,54,156,133,126,192,159,47]},"announce":[],"urlList":[]}}